
  <svg width="498" height="48" viewBox="0 0 2656 256" fill="none" xmlns="http://www.w3.org/2000/svg" xmlns:xlink="http://www.w3.org/1999/xlink" version="1.1">
    
        <g transform="translate(0, 0)">
          <svg width="256" height="256" viewBox="0 0 256 256" fill="none" xmlns="http://www.w3.org/2000/svg">
<rect width="256" height="256" rx="60" fill="#242938"/>
<path d="M128.001 30C72.7791 30 28 74.7708 28 130.001C28 174.184 56.6533 211.668 96.3867 224.891C101.384 225.817 103.219 222.722 103.219 220.081C103.219 217.696 103.126 209.819 103.083 201.463C75.2631 207.512 69.3927 189.664 69.3927 189.664C64.8437 178.105 58.2894 175.032 58.2894 175.032C49.2163 168.825 58.9733 168.953 58.9733 168.953C69.0151 169.658 74.3026 179.258 74.3026 179.258C83.2217 194.546 97.6965 190.126 103.403 187.571C104.301 181.107 106.892 176.696 109.752 174.199C87.5405 171.67 64.1913 163.095 64.1913 124.778C64.1913 113.86 68.0977 104.939 74.4947 97.9362C73.4564 95.4175 70.0335 85.2465 75.4635 71.4722C75.4635 71.4722 83.8609 68.7845 102.971 81.7226C110.948 79.5069 119.502 78.3958 128.001 78.3577C136.499 78.3958 145.061 79.5069 153.052 81.7226C172.139 68.7845 180.525 71.4722 180.525 71.4722C185.968 85.2465 182.544 95.4175 181.505 97.9362C187.917 104.939 191.797 113.86 191.797 124.778C191.797 163.187 168.403 171.644 146.135 174.119C149.722 177.223 152.918 183.308 152.918 192.638C152.918 206.018 152.802 216.787 152.802 220.081C152.802 222.742 154.602 225.86 159.671 224.878C199.383 211.64 228 174.169 228 130.001C228 74.7708 183.227 30 128.001 30ZM65.4536 172.453C65.2333 172.95 64.4517 173.099 63.7396 172.758C63.0143 172.432 62.6069 171.754 62.8421 171.256C63.0574 170.744 63.8406 170.602 64.5643 170.945C65.2913 171.271 65.7053 171.955 65.4536 172.453ZM70.3725 176.842C69.8956 177.285 68.9633 177.079 68.3307 176.38C67.6766 175.683 67.554 174.751 68.0376 174.302C68.5294 173.86 69.4336 174.067 70.0893 174.764C70.7434 175.47 70.8709 176.395 70.3725 176.842ZM73.7471 182.458C73.1344 182.884 72.1325 182.485 71.5132 181.595C70.9004 180.706 70.9004 179.64 71.5264 179.212C72.1474 178.785 73.1344 179.169 73.762 180.052C74.373 180.956 74.373 182.023 73.7471 182.458ZM79.4542 188.962C78.9061 189.566 77.7386 189.404 76.8841 188.579C76.0098 187.773 75.7663 186.629 76.3161 186.024C76.8709 185.418 78.045 185.589 78.9061 186.407C79.7738 187.211 80.0387 188.364 79.4542 188.962ZM86.8301 191.157C86.5883 191.941 85.4639 192.297 84.3312 191.964C83.2002 191.621 82.46 190.704 82.6885 189.912C82.9237 189.124 84.053 188.753 85.194 189.109C86.3234 189.45 87.0652 190.361 86.8301 191.157ZM95.2242 192.089C95.2523 192.913 94.2919 193.597 93.1029 193.612C91.9073 193.639 90.9402 192.971 90.9269 192.16C90.9269 191.327 91.8659 190.65 93.0615 190.63C94.2505 190.607 95.2242 191.269 95.2242 192.089ZM103.47 191.773C103.613 192.577 102.787 193.404 101.606 193.624C100.445 193.836 99.3702 193.339 99.2229 192.541C99.0788 191.716 99.92 190.89 101.079 190.676C102.262 190.471 103.32 190.955 103.47 191.773Z" fill="white"/>
</svg>

        </g>
         
        <g transform="translate(300, 0)">
          <svg width="256" height="256" viewBox="0 0 256 256" fill="none" xmlns="http://www.w3.org/2000/svg">
<g clip-path="url(#clip0_33_875)">
<path d="M196 0H60C26.8629 0 0 26.8629 0 60V196C0 229.137 26.8629 256 60 256H196C229.137 256 256 229.137 256 196V60C256 26.8629 229.137 0 196 0Z" fill="#242938"/>
<g clip-path="url(#clip1_33_875)">
<path d="M194.595 127.919C194.595 125.87 193.081 124.689 191.223 125.276L63.4021 165.808C61.5404 166.398 60.03 168.541 60.03 170.585V212.011C60.03 214.06 61.5404 215.245 63.4021 214.654L191.223 174.126C193.081 173.535 194.595 171.393 194.595 169.344V127.919Z" fill="url(#paint0_linear_33_875)"/>
<path d="M60.03 126.599C60.03 128.648 61.5404 130.79 63.4021 131.381L191.241 171.916C193.103 172.507 194.613 171.322 194.613 169.277V127.848C194.613 125.803 193.103 123.661 191.241 123.07L63.4021 82.5344C61.5404 81.9437 60.03 83.125 60.03 85.1737V126.599Z" fill="#FF9800"/>
<path d="M194.595 42.7949C194.595 40.7463 193.081 39.5612 191.223 40.1518L63.4021 80.6801C61.5404 81.2708 60.03 83.4129 60.03 85.4616V126.887C60.03 128.936 61.5404 130.117 63.4021 129.53L191.223 88.9981C193.081 88.4075 194.595 86.2653 194.595 84.2204V42.7949Z" fill="#FF9800"/>
</g>
</g>
<defs>
<linearGradient id="paint0_linear_33_875" x1="7476.84" y1="5387.54" x2="8041.22" y2="3500.4" gradientUnits="userSpaceOnUse">
<stop stop-color="#FF9700"/>
<stop offset="0.53" stop-color="#F48E00"/>
<stop offset="1" stop-color="#D06F00"/>
</linearGradient>
<clipPath id="clip0_33_875">
<rect width="256" height="256" fill="white"/>
</clipPath>
<clipPath id="clip1_33_875">
<rect width="175" height="175" fill="white" transform="translate(40 40)"/>
</clipPath>
</defs>
</svg>

        </g>
         
        <g transform="translate(600, 0)">
          <svg width="256" height="256" viewBox="0 0 256 256" fill="none" xmlns="http://www.w3.org/2000/svg">
<rect width="256" height="256" rx="60" fill="#242938"/>
<path d="M41.6364 203.028H73.4545V125.755L28 91.6646V189.392C28 196.937 34.1136 203.028 41.6364 203.028Z" fill="#4285F4"/>
<path d="M182.545 203.028H214.364C221.909 203.028 228 196.915 228 189.392V91.6646L182.545 125.755" fill="#34A853"/>
<path d="M182.545 66.6643V125.755L228 91.6643V73.4825C228 56.6189 208.75 47.0052 195.273 57.1189" fill="#FBBC04"/>
<path d="M73.4545 125.755V66.6646L128 107.574L182.545 66.6646V125.755L128 166.665" fill="#EA4335"/>
<path d="M28 73.4825V91.6643L73.4545 125.755V66.6643L60.7273 57.1189C47.2273 47.0052 28 56.6189 28 73.4825Z" fill="#C5221F"/>
</svg>

        </g>
         
        <g transform="translate(900, 0)">
          <svg width="256" height="256" viewBox="0 0 256 256" fill="none" xmlns="http://www.w3.org/2000/svg">
<g clip-path="url(#clip0_36_1186)">
<path d="M196 0H60C26.8629 0 0 26.8629 0 60V196C0 229.137 26.8629 256 60 256H196C229.137 256 256 229.137 256 196V60C256 26.8629 229.137 0 196 0Z" fill="#242938"/>
<g clip-path="url(#clip1_36_1186)">
<path d="M50.4451 66.8836L40.1711 180.411L99.7602 214.829L112.26 200.445L199.589 138.459L213.459 110.205L180.068 82.2945L114.144 40L50.4451 66.8836Z" fill="url(#paint0_linear_36_1186)"/>
<path d="M73.048 130.068L47.363 168.082L111.575 200.616L174.418 73.904L170.137 40.1711L131.781 73.904L73.048 130.068Z" fill="url(#paint1_linear_36_1186)"/>
<path d="M213.459 110.377L180.068 82.8081V142.055L199.76 138.459L213.459 110.377Z" fill="#09C4EF"/>
<path d="M160.205 214.829L90.5137 194.623L93.0822 181.438L181.952 118.767L193.253 114.486L214.829 197.021L160.205 214.829Z" fill="url(#paint2_linear_36_1186)"/>
<path d="M181.438 73.5615H73.2192V181.781H181.438V73.5615Z" fill="black"/>
<path d="M103.528 87.9453H83.322V132.637H92.9111V119.281H103.185L105.411 118.938L107.98 118.254L110.548 117.226L112.26 116.199L113.973 114.829L115.685 112.945L117.397 110.206L118.254 107.637L118.596 104.384L118.425 101.13L117.74 98.2193L116.712 95.6508L115.514 93.7672L113.973 92.2261L112.432 91.0275L110.891 90.0001L109.349 89.3152L108.151 88.8015L106.61 88.459L104.897 88.1165L103.528 87.9453Z" fill="white" stroke="black"/>
<path d="M101.815 96.678H93.0823V110.377H102.158L103.87 109.863L105.582 109.178L106.952 107.979L107.98 106.267L108.493 104.555V102.329L108.151 101.13L107.466 99.7602L106.438 98.5615L105.24 97.7054L103.699 97.0204L101.815 96.678Z" fill="black" stroke="black"/>
<path d="M123.904 161.575H83.4932V168.082H123.904V161.575Z" fill="white"/>
<path d="M169.795 110.365L169.795 110.371V110.377C169.795 115.414 167.585 120.727 163.845 124.938C159.652 129.658 153.549 132.979 146.507 132.979C133.163 132.979 122.877 123.4 122.877 110.548C122.877 104.107 124.962 98.2442 128.997 93.9939C133.03 89.7449 139.025 87.0918 146.874 87.0918C153.549 87.0918 159.501 89.9045 163.673 94.2284C167.832 98.5397 170.218 104.349 169.795 110.365Z" fill="white" stroke="black"/>
<path d="M160.377 109.863C160.209 117.567 155.411 124.075 145.479 124.075C137.346 124.075 132.808 117.145 132.808 109.863C132.808 102.581 137.86 96.3357 145.993 96.3357C154.126 96.3357 160.548 101.986 160.377 109.863Z" fill="black"/>
<path d="M157.294 101.473L163.801 94.1096L171.678 102.842V116.199L163.801 124.932L157.466 118.767L157.294 101.473Z" fill="black" stroke="black"/>
</g>
</g>
<defs>
<linearGradient id="paint0_linear_36_1186" x1="113.801" y1="40" x2="97.5342" y2="215" gradientUnits="userSpaceOnUse">
<stop stop-color="#2CD788"/>
<stop offset="0.37966" stop-color="#24D68E"/>
<stop offset="1" stop-color="#1ED593"/>
</linearGradient>
<linearGradient id="paint1_linear_36_1186" x1="169.623" y1="40.3424" x2="64.3151" y2="174.76" gradientUnits="userSpaceOnUse">
<stop stop-color="#ADE46C"/>
<stop offset="0.886667" stop-color="#59DC7E"/>
<stop offset="1" stop-color="#1FD593"/>
</linearGradient>
<linearGradient id="paint2_linear_36_1186" x1="99.2465" y1="215" x2="215" y2="197.021" gradientUnits="userSpaceOnUse">
<stop stop-color="#BAE768"/>
<stop offset="0.993345" stop-color="#FBF849"/>
<stop offset="1" stop-color="#FAF748"/>
</linearGradient>
<clipPath id="clip0_36_1186">
<rect width="256" height="256" fill="white"/>
</clipPath>
<clipPath id="clip1_36_1186">
<rect width="175" height="175" fill="white" transform="translate(40 40)"/>
</clipPath>
</defs>
</svg>

        </g>
         
        <g transform="translate(1200, 0)">
          <svg xmlns="http://www.w3.org/2000/svg" width="256" height="256" fill="none" viewBox="0 0 256 256"><rect width="256" height="256" fill="#242938" rx="60"/><path fill="#2489CA" d="M33.7158 100.208C33.7158 100.208 28.9814 96.795 34.6627 92.2381L47.8994 80.402C47.8994 80.402 51.6869 76.4172 55.6915 79.8891L177.84 172.368V216.714C177.84 216.714 177.781 223.678 168.844 222.908L33.7158 100.208Z"/><path fill="#1070B3" d="M65.1997 128.792L33.7157 157.415C33.7157 157.415 30.4805 159.822 33.7157 164.123L48.3333 177.418C48.3333 177.418 51.8052 181.147 56.9341 176.905L90.3119 151.596L65.1997 128.792Z"/><path fill="#0877B9" d="M120.474 129.029L178.215 84.9391L177.84 40.83C177.84 40.83 175.374 31.2033 167.148 36.2139L90.312 106.145L120.474 129.029Z"/><path fill="#3C99D4" d="M168.844 222.968C172.198 226.4 176.262 225.276 176.262 225.276L221.259 203.103C227.019 199.177 226.21 194.305 226.21 194.305V61.8982C226.21 56.0788 220.252 54.0667 220.252 54.0667L181.253 35.267C172.731 30 167.148 36.2139 167.148 36.2139C167.148 36.2139 174.328 31.0455 177.84 40.83V215.905C177.84 217.109 177.583 218.292 177.071 219.358C176.045 221.429 173.816 223.362 168.47 222.553L168.844 222.968Z"/></svg>
        </g>
         
        <g transform="translate(1500, 0)">
          <svg xmlns="http://www.w3.org/2000/svg" width="256" height="256" fill="none" viewBox="0 0 256 256"><rect width="256" height="256" fill="#242938" rx="60"/><path fill="#ECEFF1" d="M85.9493 199.926L110.48 213.546H147.576L182.278 187.491L197.834 146.632L161.935 103.405L151.764 79.1268L102.104 80.9032L102.702 94.5228L93.1291 112.287L78.1713 141.303L75.1797 165.581L85.9493 199.926Z"/><path fill="#263238" d="M187.064 114.656C177.491 101.036 169.713 92.7463 165.525 75.5738C161.337 58.4013 166.722 63.1386 163.132 48.3347C161.337 40.6367 158.345 35.3073 155.354 31.1622C151.764 27.0171 147.576 24.6485 145.182 24.0563C139.798 21.0956 127.233 16.3583 111.677 24.6485C95.5223 32.9387 97.3172 50.7033 100.309 86.8248C100.309 89.1934 99.7105 92.1542 98.5139 94.5228C96.1206 99.8522 91.9324 104.589 88.3425 108.735C84.1543 114.656 79.9661 120.578 76.9746 127.091C69.7948 140.711 63.2134 157.883 65.0083 164.397C67.9999 163.805 105.694 220.652 105.694 221.836C108.087 221.244 118.258 221.244 127.233 221.244C139.798 220.652 146.977 220.06 157.149 222.428C157.149 220.652 156.55 218.875 156.55 217.099C156.55 213.546 157.149 210.585 157.747 206.44C158.345 203.479 158.944 200.519 159.542 196.966C153.559 202.295 142.789 208.217 132.618 209.993C123.643 211.769 108.685 208.809 101.505 199.926C102.104 199.926 103.3 199.926 103.899 199.334C105.694 198.742 107.489 198.15 108.087 196.966C109.882 194.005 108.685 191.044 107.489 189.268C106.292 187.491 97.3173 180.977 93.1291 177.425C88.9409 173.872 86.5476 172.095 84.1544 169.727C84.1544 169.727 80.5645 166.174 79.3678 164.989C78.1712 163.805 77.5729 162.621 76.9746 162.028C75.778 159.068 75.1796 155.515 75.778 150.778C76.3763 144.264 78.7695 138.934 81.7611 133.013C82.9577 130.644 85.9493 125.907 85.9493 125.907C85.9493 125.907 75.778 150.778 81.1628 158.476C81.1628 158.476 81.7611 150.778 84.1544 143.08C85.9493 137.75 88.9409 130.052 92.5307 125.907C96.1206 121.762 105.095 106.366 105.694 96.8914C105.694 92.7463 106.292 88.6012 106.292 85.6405C103.899 83.2718 145.781 77.3503 148.174 83.864C148.772 86.2326 157.149 107.55 161.935 118.801C164.328 124.131 167.32 128.868 169.115 134.789C170.91 141.303 172.106 150.185 172.106 159.068C172.106 160.844 172.106 163.805 171.508 166.766C172.705 166.766 196.039 141.895 168.517 121.17C168.517 121.17 185.269 128.868 185.868 144.264C186.466 156.699 181.081 166.766 179.885 168.542C180.483 168.542 192.449 173.872 193.047 173.872C195.441 173.872 200.227 172.095 200.227 172.095C200.826 170.319 202.62 165.581 202.62 163.805C206.809 150.185 196.637 128.276 187.064 114.656V114.656Z"/><path fill="#ECEFF1" d="M111.078 75.5738C115.374 75.5738 118.856 70.2714 118.856 63.7307C118.856 57.1899 115.374 51.8876 111.078 51.8876C106.783 51.8876 103.3 57.1899 103.3 63.7307C103.3 70.2714 106.783 75.5738 111.078 75.5738Z"/><path fill="#ECEFF1" d="M138.002 76.7581C143.62 76.7581 148.174 70.6604 148.174 63.1386C148.174 55.6167 143.62 49.519 138.002 49.519C132.385 49.519 127.831 55.6167 127.831 63.1386C127.831 70.6604 132.385 76.7581 138.002 76.7581Z"/><path fill="#212121" d="M115.424 64.5411C114.927 60.6476 112.663 57.7241 110.368 58.0111C108.074 58.2982 106.616 61.6872 107.114 65.5807C107.611 69.4741 109.874 72.3977 112.169 72.1106C114.464 71.8235 115.921 68.4345 115.424 64.5411Z"/><path fill="#212121" d="M137.404 73.2052C140.709 73.2052 143.387 69.7587 143.387 65.5072C143.387 61.2557 140.709 57.8091 137.404 57.8091C134.1 57.8091 131.421 61.2557 131.421 65.5072C131.421 69.7587 134.1 73.2052 137.404 73.2052Z"/><path fill="#FFC107" d="M216.98 195.781C214.587 194.597 210.398 192.82 206.808 187.491C205.014 184.53 205.612 176.24 202.62 172.687C200.825 170.319 198.432 171.503 197.834 171.503C192.449 172.687 179.884 180.977 171.508 171.503C170.311 170.319 168.516 168.542 165.525 168.542C162.533 168.542 161.337 169.726 160.14 172.095C158.943 174.464 158.943 176.24 158.943 182.162C158.943 186.899 158.943 192.228 158.345 196.373C157.148 206.44 155.354 212.362 155.354 218.283C155.354 224.797 157.148 228.942 159.542 230.718C161.337 232.495 164.328 233.679 170.91 233.679C177.491 233.679 181.679 231.311 185.868 227.165C188.859 224.205 191.252 223.02 199.629 217.099C206.21 212.954 216.382 207.624 218.176 205.848C219.373 204.664 221.168 204.071 221.168 200.518C221.168 197.558 218.775 196.373 216.98 195.781V195.781Z"/><path fill="#FFC107" d="M96.7189 197.558C90.7357 188.083 90.1374 186.307 85.9492 180.385C82.3593 174.464 74.5813 163.213 69.7948 163.213C66.2049 163.213 64.4099 164.989 62.0167 167.358C59.6234 169.726 57.2302 175.056 53.042 178.017C49.4521 180.977 39.2808 180.385 36.8875 183.938C34.4942 187.491 39.2808 192.821 39.2808 201.703C39.2808 205.256 36.2892 207.624 35.6909 209.993C35.0926 212.954 34.4942 214.73 35.6909 217.099C38.0841 220.652 41.0757 221.836 61.4184 225.981C72.188 228.35 82.3593 234.271 88.9408 234.864C95.5222 235.456 106.89 234.864 106.89 218.875C107.489 209.401 102.104 207.032 96.7189 197.558Z"/><path fill="#FFC107" d="M108.087 90.3777C104.497 88.0091 101.505 85.6404 101.505 82.0875C101.505 78.5346 103.899 77.3503 107.489 74.3895C108.087 73.7973 114.668 67.8758 121.25 67.8758C127.831 67.8758 135.609 72.0209 138.601 73.2052C143.986 74.3895 149.37 75.5738 148.772 79.7189C148.174 85.6404 147.576 86.8248 141.592 89.7855C137.404 90.9698 129.626 97.4835 124.241 97.4835C121.848 97.4835 118.258 97.4835 115.865 96.8914C114.07 96.2992 111.078 93.3385 108.087 90.3777V90.3777Z"/><path fill="#634703" d="M106.89 85.6405C108.087 86.8248 109.882 88.0091 111.677 88.6012C112.873 89.1934 114.668 89.7856 114.668 89.7856C117.062 89.7856 118.857 89.7856 120.053 89.7856C123.045 89.7856 127.233 88.6013 131.421 86.2326C135.609 84.4562 136.208 83.2718 139.199 82.0875C142.191 80.3111 145.182 78.5346 143.986 77.9425C142.789 77.3503 141.592 77.9425 137.404 80.3111C133.814 82.6797 130.823 83.864 127.233 85.6405C125.438 86.2326 123.045 87.4169 121.25 87.4169C119.455 87.4169 117.66 87.4169 115.865 87.4169C114.07 87.4169 112.873 86.8248 111.078 86.2326C109.882 85.6405 109.283 85.0483 108.685 85.0483C107.489 84.4562 105.095 82.0875 103.899 81.4954C103.899 81.4954 102.702 81.4954 103.3 82.0875C105.095 83.864 105.694 84.4562 106.89 85.6405Z"/><path fill="#634703" d="M124.84 72.613C125.438 73.7973 126.635 73.7973 127.233 74.3895C127.831 74.9816 128.429 74.9816 128.429 74.9816C129.028 74.3895 128.429 73.2052 127.831 73.2052C127.831 72.0209 124.84 72.0209 124.84 72.613V72.613Z"/><path fill="#634703" d="M115.267 73.7973C115.267 74.3895 116.463 74.9816 116.463 74.3895C117.062 73.7973 117.66 73.2052 118.258 73.2052C119.455 72.613 118.856 72.0209 117.062 72.0209C115.865 72.613 115.865 73.2052 115.267 73.7973V73.7973Z"/><path fill="#455A64" d="M173.303 178.609C173.303 179.201 173.303 179.793 173.303 180.385C174.5 182.754 177.491 183.346 179.884 183.346C183.474 183.346 187.064 180.977 188.859 178.609C188.859 178.017 189.457 177.424 190.056 176.832C191.252 175.056 191.851 173.872 192.449 173.279C192.449 173.279 191.851 172.687 191.851 172.095C191.252 170.911 189.457 169.726 187.064 169.134C185.269 168.542 182.278 167.95 181.081 167.95C175.696 167.358 172.705 169.134 170.91 170.911C170.91 170.911 171.508 170.911 171.508 171.503C172.705 172.687 173.303 173.872 173.303 175.648C173.901 176.832 173.303 177.424 173.303 178.609V178.609Z"/></svg>
        </g>
         
        <g transform="translate(1800, 0)">
          <svg xmlns="http://www.w3.org/2000/svg" width="256" height="256" fill="none" viewBox="0 0 256 256"><rect width="256" height="256" fill="#300" rx="60"/><path fill="#FF9A00" d="M123.733 152.333H84.053L75.9464 177.4C75.733 178.36 74.8797 179 73.9197 178.893H53.8664C52.693 178.893 52.373 178.253 52.693 176.973L87.0397 78.0935C87.3597 77.0268 87.6797 75.8535 88.1064 74.5735C88.533 72.3335 88.7464 69.9868 88.7464 67.6401C88.6397 67.1068 89.0664 66.5735 89.5997 66.4668H89.9197H117.226C118.08 66.4668 118.506 66.7868 118.613 67.3201L157.546 177.187C157.866 178.36 157.546 178.893 156.48 178.893H134.186C133.44 179 132.693 178.467 132.48 177.72L123.733 152.333V152.333ZM90.2397 130.68H117.333C116.693 128.44 115.84 125.773 114.88 123C113.92 120.12 112.96 117.027 112 113.827C110.933 110.52 109.973 107.32 108.906 104.013C107.84 100.707 106.88 97.6135 106.026 94.5201C105.173 91.5335 104.426 88.7601 103.68 86.2001H103.466C102.506 90.7868 101.333 95.3735 99.8397 99.9601C98.2397 105.08 96.6397 110.413 94.933 115.747C93.4397 121.187 91.8397 126.2 90.2397 130.68V130.68Z"/><path fill="#FF9A00" d="M181.333 85.1334C177.813 85.2401 174.4 83.8534 171.84 81.4001C169.387 78.7334 168.107 75.2134 168.213 71.5868C168.107 67.9601 169.493 64.5468 172.053 62.0934C174.613 59.6401 178.027 58.3601 181.547 58.3601C185.707 58.3601 188.907 59.6401 191.253 62.0934C193.6 64.6534 194.88 68.0668 194.773 71.5868C194.88 75.2134 193.6 78.7334 191.04 81.4001C188.587 83.9601 184.96 85.3468 181.333 85.1334ZM169.387 177.72V95.5868C169.387 94.5201 169.813 94.0934 170.773 94.0934H191.893C192.853 94.0934 193.28 94.6268 193.28 95.5868V177.72C193.28 178.893 192.853 179.427 191.893 179.427H170.987C169.92 179.427 169.387 178.787 169.387 177.72V177.72Z"/></svg>
        </g>
         
        <g transform="translate(2100, 0)">
          <svg xmlns="http://www.w3.org/2000/svg" width="256" height="256" fill="none" viewBox="0 0 256 256"><rect width="256" height="256" fill="#242938" rx="60"/><path fill="#BCBBBB" d="M183.541 206.378V157.73H205.162V228H43V157.73H64.6216V206.378H183.541Z"/><path fill="#F48024" d="M159.216 28L144.622 38.8108L198.135 110.703L212.73 99.8919L159.216 28ZM183.541 127.459L114.892 70.1622L126.243 56.6486L194.892 113.946L183.541 127.459ZM92.1892 110.162L173.27 148L180.838 131.784L99.7568 93.9459L92.1892 110.162ZM167.865 168.486L171.541 152.541L84.5136 134.432L80.8379 152.324L167.865 168.486V168.486ZM167.324 190.162H80.8379V173.946H167.324V190.162Z"/></svg>
        </g>
         
        <g transform="translate(2400, 0)">
          <svg width="256" height="256" viewBox="0 0 256 256" fill="none" xmlns="http://www.w3.org/2000/svg">
<rect width="256" height="256" rx="60" fill="url(#paint0_radial_206_683)"/>
<rect width="256" height="256" rx="60" fill="url(#paint1_radial_206_683)"/>
<path d="M128.009 28C100.851 28 97.4424 28.1188 86.7756 28.6042C76.1297 29.0917 68.8629 30.7771 62.5045 33.2501C55.9274 35.8042 50.3481 39.221 44.7898 44.7814C39.2272 50.3398 35.8105 55.919 33.248 62.4941C30.7688 68.8546 29.0813 76.1234 28.6021 86.7652C28.125 97.432 28 100.842 28 128.001C28 155.16 28.1208 158.558 28.6042 169.224C29.0938 179.87 30.7792 187.137 33.2501 193.495C35.8063 200.073 39.223 205.652 44.7835 211.21C50.3398 216.773 55.919 220.198 62.492 222.752C68.8546 225.225 76.1234 226.91 86.7673 227.398C97.4341 227.883 100.84 228.002 127.997 228.002C155.158 228.002 158.556 227.883 169.222 227.398C179.868 226.91 187.143 225.225 193.506 222.752C200.081 220.198 205.652 216.773 211.208 211.21C216.771 205.652 220.187 200.073 222.75 193.498C225.208 187.137 226.896 179.868 227.396 169.226C227.875 158.56 228 155.16 228 128.001C228 100.842 227.875 97.4341 227.396 86.7673C226.896 76.1213 225.208 68.8546 222.75 62.4962C220.187 55.919 216.771 50.3398 211.208 44.7814C205.646 39.2189 200.083 35.8022 193.5 33.2501C187.125 30.7771 179.854 29.0917 169.208 28.6042C158.541 28.1188 155.145 28 127.978 28H128.009ZM119.038 46.021C121.701 46.0169 124.672 46.021 128.009 46.021C154.71 46.021 157.874 46.1169 168.418 46.596C178.168 47.0419 183.46 48.671 186.985 50.0398C191.652 51.8523 194.979 54.019 198.477 57.5191C201.977 61.0191 204.143 64.3525 205.96 69.0192C207.329 72.54 208.96 77.8318 209.404 87.5819C209.883 98.1236 209.987 101.29 209.987 127.978C209.987 154.666 209.883 157.833 209.404 168.374C208.958 178.124 207.329 183.416 205.96 186.937C204.148 191.604 201.977 194.927 198.477 198.425C194.977 201.925 191.654 204.091 186.985 205.904C183.464 207.279 178.168 208.904 168.418 209.35C157.876 209.829 154.71 209.933 128.009 209.933C101.307 209.933 98.1424 209.829 87.6006 209.35C77.8505 208.9 72.5588 207.271 69.0317 205.902C64.365 204.089 61.0316 201.923 57.5316 198.423C54.0315 194.923 51.8648 191.598 50.0481 186.929C48.6794 183.408 47.0481 178.116 46.6044 168.366C46.1252 157.824 46.0294 154.658 46.0294 127.953C46.0294 101.249 46.1252 98.0986 46.6044 87.5569C47.0502 77.8068 48.6794 72.515 50.0481 68.99C51.8607 64.3233 54.0315 60.9899 57.5316 57.4899C61.0316 53.9899 64.365 51.8232 69.0317 50.0065C72.5567 48.6315 77.8505 47.0064 87.6006 46.5585C96.8257 46.1419 100.401 46.0169 119.038 45.996V46.021ZM181.389 62.6254C174.764 62.6254 169.389 67.9942 169.389 74.6213C169.389 81.2464 174.764 86.6214 181.389 86.6214C188.014 86.6214 193.389 81.2464 193.389 74.6213C193.389 67.9962 188.014 62.6212 181.389 62.6212V62.6254ZM128.009 76.6463C99.6487 76.6463 76.6547 99.6403 76.6547 128.001C76.6547 156.362 99.6487 179.345 128.009 179.345C156.37 179.345 179.356 156.362 179.356 128.001C179.356 99.6403 156.368 76.6463 128.007 76.6463H128.009ZM128.009 94.6674C146.418 94.6674 161.343 109.59 161.343 128.001C161.343 146.41 146.418 161.335 128.009 161.335C109.599 161.335 94.6757 146.41 94.6757 128.001C94.6757 109.59 109.599 94.6674 128.009 94.6674V94.6674Z" fill="white"/>
<defs>
<radialGradient id="paint0_radial_206_683" cx="0" cy="0" r="1" gradientUnits="userSpaceOnUse" gradientTransform="translate(68.0003 275.717) rotate(-90) scale(253.715 235.975)">
<stop stop-color="#FFDD55"/>
<stop offset="0.1" stop-color="#FFDD55"/>
<stop offset="0.5" stop-color="#FF543E"/>
<stop offset="1" stop-color="#C837AB"/>
</radialGradient>
<radialGradient id="paint1_radial_206_683" cx="0" cy="0" r="1" gradientUnits="userSpaceOnUse" gradientTransform="translate(-42.8814 18.4418) rotate(78.6806) scale(113.412 467.488)">
<stop stop-color="#3771C8"/>
<stop offset="0.128" stop-color="#3771C8"/>
<stop offset="1" stop-color="#6600FF" stop-opacity="0"/>
</radialGradient>
</defs>
</svg>

        </g>
        
  </svg>
  