
  <svg width="554.25" height="48" viewBox="0 0 2956 256" fill="none" xmlns="http://www.w3.org/2000/svg" xmlns:xlink="http://www.w3.org/1999/xlink" version="1.1">
    
        <g transform="translate(0, 0)">
          <svg width="256" height="256" viewBox="0 0 256 256" fill="none" xmlns="http://www.w3.org/2000/svg">
<g clip-path="url(#clip0_33_588)">
<path d="M196 0H60C26.8629 0 0 26.8629 0 60V196C0 229.137 26.8629 256 60 256H196C229.137 256 256 229.137 256 196V60C256 26.8629 229.137 0 196 0Z" fill="#242938"/>
<g clip-path="url(#clip1_33_588)">
<path d="M23 88H233V156.571H128V168H81.3333V156.571H23V88ZM34.6667 145.143H58V110.857H69.6667V145.143H81.3333V99.4286H34.6667V145.143ZM93 99.4286V156.571H116.333V145.143H139.667V99.4286H93ZM116.333 110.857H128V133.714H116.333V110.857ZM151.333 99.4286V145.143H174.667V110.857H186.333V145.143H198V110.857H209.667V145.143H221.333V99.4286H151.333Z" fill="#CB3837"/>
<path d="M34.6667 145.143H58V110.857H69.6667V145.143H81.3334V99.4286H34.6667V145.143Z" fill="white"/>
<path d="M93 99.4286V156.571H116.333V145.143H139.667V99.4286H93ZM128 133.714H116.333V110.857H128V133.714Z" fill="white"/>
<path d="M151.333 99.4286V145.143H174.667V110.857H186.333V145.143H198V110.857H209.667V145.143H221.333V99.4286H151.333Z" fill="white"/>
</g>
</g>
<defs>
<clipPath id="clip0_33_588">
<rect width="256" height="256" fill="white"/>
</clipPath>
<clipPath id="clip1_33_588">
<rect width="210" height="80" fill="white" transform="translate(23 88)"/>
</clipPath>
</defs>
</svg>

        </g>
         
        <g transform="translate(300, 0)">
          <svg xmlns="http://www.w3.org/2000/svg" width="256" height="256" fill="none" viewBox="0 0 256 256"><rect width="256" height="256" fill="#242938" rx="60"/><path fill="#41CD52" fill-rule="evenodd" d="M99.5884 90.2637C90.8797 90.2637 84.8736 93.0035 81.5703 98.5552C78.3421 104.107 76.6904 112.903 76.6904 125.088C76.6904 137.201 78.267 145.925 81.4202 151.116C84.5733 156.307 90.6544 158.975 99.5884 158.975C108.522 158.975 114.528 156.38 117.682 151.26C120.76 146.141 122.336 137.417 122.336 125.232C122.336 112.975 120.76 104.107 117.531 98.5552C114.303 93.0035 108.297 90.2637 99.5884 90.2637" clip-rule="evenodd"/><path fill="#41CD52" fill-rule="evenodd" d="M178.837 169.771C170.903 169.771 165.464 168.063 162.516 164.647C159.57 161.232 158.059 154.755 158.059 145.22V114.477H147.331V102.237H158.059V83.0234H173.246V102.237H192.587V114.548H173.246V143.654C173.246 149.062 173.699 152.62 174.53 154.329C175.36 156.108 177.552 156.962 180.952 156.962L192.436 156.534L193.116 168.063C186.921 169.201 182.16 169.771 178.837 169.771V169.771ZM135.091 183.576L120.66 189.91L108.194 170.624C106.38 171.123 103.585 171.408 99.656 171.408C85.0741 171.408 74.8743 167.707 69.1322 160.306C63.3901 152.906 60.5191 141.164 60.5191 125.222C60.5191 109.211 63.4657 97.3272 69.2833 89.5704C75.101 81.8129 85.2252 77.8989 99.656 77.8989C114.087 77.8989 124.211 81.7425 129.953 89.4992C135.771 97.1849 138.642 109.069 138.642 125.152C138.642 135.755 137.433 144.294 135.091 150.771C132.672 157.318 128.82 162.299 123.38 165.715L135.091 183.576ZM217.369 51H209.663H47.7505L17 79.9634V176.816V184.715V204.783H38.3062H46.0127H207.925L238.675 175.82V78.9664V71.068V51H217.369Z" clip-rule="evenodd"/></svg>
        </g>
         
        <g transform="translate(600, 0)">
          <svg width="256" height="256" viewBox="0 0 256 256" fill="none" xmlns="http://www.w3.org/2000/svg">
<g clip-path="url(#clip0_307_145)">
<path d="M60 0C26.8629 0 0 26.8629 0 60V196C0 229.137 26.8629 256 60 256H168.46C166.681 250.757 165.288 242.454 164.504 232.977C163.829 224.825 163.605 215.806 163.979 207.107C163.878 205.821 163.817 204.985 163.817 204.985C163.817 204.985 161.943 192.375 159.246 182.016C158.052 177.418 156.693 173.26 155.266 170.85C154.531 169.607 155.346 164.499 157.397 156.934C158.597 159.005 163.66 167.866 164.677 170.722C165.822 173.95 166.062 174.875 166.062 174.875C166.062 174.875 163.285 160.603 158.729 152.275C159.728 148.908 160.921 145.187 162.271 141.209C163.849 143.976 167.436 150.33 168.732 153.341C168.852 153.62 168.96 153.882 169.039 154.098C169.223 154.62 169.378 155.063 169.517 155.469C170.248 157.587 170.426 158.261 170.426 158.261C170.426 158.261 170.155 156.875 169.651 154.737C169.438 153.834 169.173 152.772 168.878 151.641C167.73 147.232 165.986 141.46 163.753 136.937C169.485 107.143 187.934 68.1305 207.81 47.0689C209.523 45.2554 211.244 43.5577 212.968 42.0275C224.587 31.7274 236.36 28.2483 246.083 36.9095C253.117 43.1773 255.995 51.8346 256 61.8004V60C256 26.8629 229.137 0 196 0H60Z" fill="#D9D9D9"/>
<path d="M60 0C26.8629 0 0 26.8629 0 60V196C0 229.137 26.8629 256 60 256H168.46C166.681 250.757 165.288 242.454 164.504 232.977C163.829 224.825 163.605 215.806 163.979 207.107C163.878 205.821 163.817 204.985 163.817 204.985C163.817 204.985 161.943 192.375 159.246 182.016C158.052 177.418 156.693 173.26 155.266 170.85C154.531 169.607 155.346 164.499 157.397 156.934C158.597 159.005 163.66 167.866 164.677 170.722C165.822 173.95 166.062 174.875 166.062 174.875C166.062 174.875 163.285 160.603 158.729 152.275C159.728 148.908 160.921 145.187 162.271 141.209C163.849 143.976 167.436 150.33 168.732 153.341C168.852 153.62 168.96 153.882 169.039 154.098C169.223 154.62 169.378 155.063 169.517 155.469C170.248 157.587 170.426 158.261 170.426 158.261C170.426 158.261 170.155 156.875 169.651 154.737C169.438 153.834 169.173 152.772 168.878 151.641C167.73 147.232 165.986 141.46 163.753 136.937C169.485 107.143 187.934 68.1305 207.81 47.0689C209.523 45.2554 211.244 43.5577 212.968 42.0275C224.587 31.7274 236.36 28.2483 246.083 36.9095C253.117 43.1773 255.995 51.8346 256 61.8004V60C256 26.8629 229.137 0 196 0H60Z" fill="url(#paint0_linear_307_145)"/>
<path d="M246.083 36.9095C236.36 28.2483 224.587 31.7274 212.968 42.0275C211.244 43.5577 209.523 45.2554 207.81 47.0689C187.934 68.1305 169.485 107.143 163.753 136.937C165.986 141.46 167.73 147.232 168.878 151.641C169.173 152.772 169.438 153.834 169.651 154.737C170.155 156.875 170.426 158.261 170.426 158.261C170.426 158.261 170.248 157.587 169.517 155.469C169.378 155.063 169.223 154.62 169.039 154.098C168.96 153.882 168.852 153.62 168.732 153.341C167.436 150.33 163.849 143.976 162.271 141.209C160.921 145.187 159.728 148.908 158.729 152.275C163.285 160.603 166.062 174.875 166.062 174.875C166.062 174.875 165.822 173.95 164.677 170.722C163.66 167.866 158.597 159.005 157.397 156.934C155.346 164.499 154.531 169.607 155.266 170.85C156.693 173.26 158.052 177.418 159.246 182.016C161.943 192.375 163.817 204.985 163.817 204.985C163.817 204.985 163.878 205.821 163.979 207.107C163.605 215.806 163.829 224.825 164.504 232.977C165.397 243.768 167.079 253.039 169.223 258L170.678 257.207C167.53 247.433 166.251 234.623 166.811 219.849C167.658 197.268 172.861 170.036 182.473 141.653C198.713 98.8063 221.245 64.4287 241.867 48.0113C223.071 64.9667 197.632 119.85 190.017 140.174C181.491 162.933 175.448 184.291 171.807 204.753C178.09 185.57 198.405 177.324 198.405 177.324C198.405 177.324 208.369 165.05 220.013 147.514C213.038 149.103 201.585 151.823 197.748 153.433C192.09 155.804 190.565 156.613 190.565 156.613C190.565 156.613 208.895 145.463 224.621 140.415C246.249 106.39 269.811 58.0531 246.083 36.9095" fill="#003B57"/>
<path d="M28.5202 49C25.4571 49 22.9663 49.8947 21.0568 51.6832C19.1473 53.4733 18.1786 55.8197 18.1786 58.6947C18.1786 60.1847 18.4192 61.5432 18.8932 62.788C19.3672 64.0354 20.1048 65.1909 21.0965 66.235C22.0882 67.2801 24.0732 68.6997 27.0315 70.5046C30.6616 72.6912 33.0372 74.4658 34.1773 75.8514C35.3183 77.2358 35.8844 78.6867 35.8844 80.1993C35.8844 82.2246 35.2087 83.8412 33.8201 85.0565C32.429 86.2722 30.5687 86.8779 28.2622 86.8779C25.8294 86.8779 23.7103 86.0317 21.8905 84.3514C20.0707 82.6686 19.1521 80.4429 19.1314 77.6532H18V87.7788H19.1314C19.4768 86.82 19.9548 86.3295 20.5804 86.3295C20.8814 86.3295 21.5864 86.5343 22.6845 86.917C25.3562 87.855 27.55 88.3076 29.2745 88.3076C32.2464 88.3076 34.7832 87.2806 36.8967 85.1935C39.0071 83.1074 40.0727 80.591 40.0727 77.6532C40.0727 75.3752 39.3692 73.3485 37.9885 71.5818C36.6077 69.813 33.9225 67.7556 29.9097 65.3929C26.4567 63.3459 24.2153 61.6787 23.1807 60.379C22.1446 59.0812 21.6126 57.6456 21.6126 56.0703C21.6126 54.3664 22.247 52.9977 23.4983 51.977C24.7496 50.9554 26.3892 50.4493 28.4408 50.4493C30.7497 50.4493 32.6743 51.1254 34.1972 52.4862C35.7185 53.8493 36.5982 55.7383 36.857 58.1659H37.9885V49.3917H36.9364C36.8078 49.839 36.6887 50.125 36.5791 50.2535C36.4727 50.3812 36.2679 50.4493 35.9638 50.4493C35.5978 50.4493 34.9451 50.2973 34.0186 49.9988C32.0336 49.3392 30.2035 49 28.5202 49ZM65.4999 49C61.7674 49 58.3787 49.868 55.3171 51.6048C52.2507 53.3385 49.8235 55.7459 48.0323 58.8122C46.2419 61.8782 45.3526 65.1346 45.3526 68.6048C45.3526 73.2671 46.8993 77.4206 50.0173 81.0611C53.1368 84.6993 56.8749 86.9663 61.2124 87.8376C62.2041 88.3474 63.6229 89.6635 65.48 91.7938C67.573 94.1978 69.3435 95.9318 70.7997 96.9643C72.2543 97.9974 73.8248 98.7545 75.4842 99.2558C77.1452 99.7549 78.9412 100 80.8832 100C83.235 100 85.3406 99.5967 87.1954 98.7661L86.7785 97.7477C85.7019 98.1309 84.5538 98.3157 83.3446 98.3157C81.7034 98.3157 80.0448 97.7817 78.3822 96.7097C76.722 95.635 74.6457 93.5846 72.1693 90.5599C71.0053 89.1106 70.2018 88.1962 69.7477 87.8376C74.4933 86.9232 78.3957 84.6538 81.439 81.0219C84.4816 77.3916 86.0044 73.2484 86.0044 68.6048C86.0044 63.0913 84.0163 58.4576 80.0694 54.6797C76.1194 50.9015 71.2618 49 65.4999 49ZM88.5848 49L88.6444 50.1947C91.1295 50.1947 92.5214 50.917 92.8326 52.3687C92.9485 52.8881 93.0017 53.8471 93.0113 55.2281L92.9914 81.6486C92.9708 83.6219 92.6858 84.8818 92.1379 85.4286C91.5893 85.9715 90.6619 86.3115 89.3193 86.447L89.2598 87.6417H114.032L114.667 81.6486H113.536C113.213 83.2812 112.472 84.4508 111.293 85.1152C110.11 85.7845 108.02 86.1141 105 86.1141H102.658C99.9412 86.1141 98.3691 85.1449 97.9539 83.1959C97.8681 82.8103 97.8387 82.3968 97.8348 81.9424L97.934 55.2281C97.9334 53.258 98.1857 51.9378 98.7081 51.2915C99.2361 50.6475 100.188 50.2871 101.566 50.1947L101.507 49H88.5849H88.5848ZM65.8969 50.4493C70.1065 50.4493 73.5437 52.0852 76.1988 55.3848C78.853 58.6855 80.1687 63.2094 80.1687 68.9378C80.1687 74.366 78.834 78.7123 76.1591 81.9816C73.4841 85.2498 69.9239 86.8779 65.4999 86.8779C61.2497 86.8779 57.803 85.199 55.1583 81.8249C52.5159 78.4507 51.2082 74.0701 51.2082 68.6832C51.2082 63.1476 52.5318 58.7164 55.198 55.4044C57.8626 52.0959 61.4307 50.4493 65.8969 50.4493ZM122.865 56.129C122.261 56.129 121.8 56.3304 121.456 56.7362C121.103 57.1404 120.995 57.63 121.118 58.2247C121.237 58.8015 121.567 59.307 122.091 59.7327C122.612 60.158 123.174 60.379 123.778 60.379C124.362 60.379 124.808 60.158 125.128 59.7327C125.448 59.307 125.545 58.8015 125.426 58.2247C125.302 57.63 124.984 57.1404 124.493 56.7362C123.996 56.3304 123.449 56.129 122.865 56.129ZM139.201 60.1832C138.174 64.08 135.949 66.1888 132.532 66.5288L132.571 67.6452H136.561L136.482 80.8456C136.488 83.1025 136.558 84.605 136.72 85.3698C137.113 87.2007 138.325 88.1313 140.352 88.1313C143.286 88.1313 146.364 86.368 149.582 82.8433L148.61 82.0207C146.286 84.3419 144.231 85.5069 142.437 85.5069C141.334 85.5069 140.65 84.8811 140.392 83.6463C140.321 83.3464 140.293 82.996 140.293 82.5887L140.333 67.6452H146.426L146.367 65.8629H140.352V60.1832H139.201H139.201ZM162.762 65.1578C159.354 65.1578 156.581 66.7905 154.426 70.0346C152.281 73.2842 151.617 76.8845 152.461 80.8456C152.957 83.1658 153.945 84.9641 155.458 86.2316C156.968 87.4985 158.884 88.1313 161.174 88.1313C163.307 88.1313 166.277 87.5985 167.526 86.5253C168.779 85.4528 169.934 83.7152 171 81.3353L170.146 80.4539C168.446 83.5413 165.013 85.0956 162.425 85.0956C158.866 85.0956 156.687 83.1692 155.875 79.3376C155.769 78.8485 155.69 78.323 155.636 77.7707C159.87 77.1094 163.078 75.9383 165.244 74.2454C167.407 72.5516 169.58 70.7562 169.174 68.8594C168.932 67.7324 168.339 66.8462 167.427 66.1763C166.503 65.5067 164.103 65.1578 162.762 65.1578ZM125.505 65.2949L118.161 66.9597V68.2523L120.701 67.9389C121.932 67.9389 122.656 68.4888 122.885 69.5841C122.962 69.9507 123.01 70.4654 123.024 71.1118L122.944 82.9608C122.924 84.6005 122.739 85.5537 122.369 85.8399C121.995 86.1266 121.009 86.2707 119.411 86.2707L119.371 87.3871H131.023L131.003 86.2707C129.384 86.2707 128.335 86.1447 127.867 85.8986C127.407 85.6541 127.091 85.2091 126.954 84.5276C126.848 84.0365 126.802 83.1903 126.795 82.0207L126.835 65.2949H125.505H125.505ZM160.897 67.4885C161.606 67.4885 162.291 67.7587 162.981 68.2915C163.661 68.8224 164.076 69.4128 164.211 70.0541C164.876 73.2043 162.045 75.3822 155.676 76.5956C155.494 74.2986 155.898 72.2134 156.927 70.3283C157.948 68.4451 159.278 67.4885 160.897 67.4885Z" fill="#003B57"/>
</g>
<defs>
<linearGradient id="paint0_linear_307_145" x1="147.614" y1="5.2389" x2="147.614" y2="241.763" gradientUnits="userSpaceOnUse">
<stop stop-color="#97D9F6"/>
<stop offset="0.920245" stop-color="#0F80CC"/>
<stop offset="1" stop-color="#0F80CC"/>
</linearGradient>
<clipPath id="clip0_307_145">
<rect width="256" height="256" rx="60" fill="white"/>
</clipPath>
</defs>
</svg>

        </g>
         
        <g transform="translate(900, 0)">
          <svg xmlns="http://www.w3.org/2000/svg" width="256" height="256" fill="none" viewBox="0 0 256 256"><rect width="256" height="256" fill="#242938" rx="60"/><g clip-path="url(#clip0_7_147)"><path fill="#fff" fill-rule="evenodd" d="M203.801 178.21C194.011 177.938 186.416 178.941 180.051 181.619C178.218 182.355 175.277 182.355 175.035 184.662C176.015 185.63 176.133 187.214 176.992 188.556C178.459 190.991 181.033 194.271 183.357 195.973L191.191 201.571C195.965 204.488 201.351 206.193 206.002 209.113C208.696 210.817 211.388 213.007 214.082 214.834C215.454 215.807 216.285 217.392 218 217.997V217.629C217.144 216.538 216.897 214.957 216.044 213.735L212.367 210.209C208.82 205.465 204.41 201.325 199.636 197.922C195.718 195.245 187.152 191.596 185.56 187.097L185.319 186.824C188.008 186.552 191.191 185.605 193.764 184.875C197.929 183.784 201.721 184.024 206.002 182.93L211.882 181.226V180.135C209.678 177.946 208.087 175.025 205.763 172.959C199.521 167.606 192.661 162.373 185.56 157.994C181.766 155.562 176.868 153.977 172.829 151.913C171.356 151.182 168.911 150.817 168.055 149.601C165.846 146.929 164.625 143.397 163.034 140.232L152.997 119.064C150.794 114.319 149.444 109.574 146.755 105.195C134.144 84.5124 120.431 71.9828 99.375 59.6932C94.8477 57.1382 89.4616 56.0393 83.7353 54.7032L74.5546 54.2124C72.5928 53.3616 70.6364 51.0493 68.9216 49.9531C61.9441 45.5739 43.9475 36.0847 38.8029 48.5897C35.4966 56.4974 43.7006 64.2824 46.4855 68.299C48.5708 71.0966 51.2597 74.2597 52.7332 77.4228C53.5563 79.4897 53.8307 81.682 54.6895 83.8717C56.6458 89.2243 58.4842 95.1878 61.0551 100.178C62.427 102.733 63.8675 105.413 65.5824 107.723C66.5619 109.086 68.2768 109.67 68.6417 111.859C66.9268 114.294 66.8089 117.94 65.8293 120.986C61.42 134.734 63.1349 151.766 69.377 161.888C71.3389 164.928 75.9622 171.622 82.2345 169.065C87.744 166.875 86.5148 159.941 88.1062 153.857C88.4766 152.399 88.2297 151.425 88.9623 150.449V150.722L93.9834 160.819C97.7781 166.78 104.391 172.986 109.897 177.125C112.833 179.315 115.16 183.089 118.831 184.425V184.057H118.59C117.854 182.966 116.751 182.475 115.772 181.624C113.569 179.435 111.121 176.757 109.406 174.325C104.267 167.513 99.7399 159.968 95.6983 152.183C93.7365 148.412 92.0216 144.275 90.4357 140.504C89.6949 139.043 89.6949 136.85 88.4739 136.125C86.6355 138.797 83.9466 141.115 82.5939 144.398C80.2672 149.628 80.0257 156.077 79.1697 162.769C78.6758 162.891 78.8953 162.769 78.6758 163.041C74.7631 162.071 73.4132 158.051 71.9453 154.648C68.274 146.01 67.6594 132.141 70.8422 122.164C71.6983 119.609 75.375 111.579 73.9071 109.146C73.1662 106.834 70.7242 105.498 69.3743 103.671C67.7829 101.359 66.0735 98.4409 64.9705 95.8859C62.0346 89.0689 60.5667 81.5293 57.3812 74.7151C55.9077 71.552 53.3396 68.2662 51.257 65.3486C48.9303 62.0628 46.3648 59.7505 44.5265 55.8593C43.9146 54.4959 43.0585 52.3309 44.0381 50.8693C44.2795 49.8959 44.7734 49.5059 45.7475 49.2878C47.3389 47.9244 51.8716 49.6532 53.463 50.3785C57.9903 52.2054 61.7849 53.907 65.5796 56.4592C67.2945 57.6754 69.1329 59.9877 71.3361 60.5985H73.9098C77.8279 61.4493 82.2317 60.8712 85.9002 61.9619C92.3893 64.0343 98.2637 67.0719 103.532 70.3604C119.567 80.4577 132.792 94.8143 141.725 111.971C143.193 114.769 143.805 117.324 145.155 120.244C147.729 126.208 150.912 132.289 153.477 138.132C156.051 143.85 158.498 149.694 162.17 154.438C164.008 156.993 171.35 158.329 174.654 159.668C177.104 160.759 180.896 161.741 183.105 163.077C187.264 165.632 191.427 168.552 195.342 171.35C197.298 172.806 203.423 175.849 203.787 178.276L203.801 178.21ZM78.9584 72.4873C77.267 72.4724 75.5809 72.6769 73.9427 73.0954V73.3681H74.1842C75.1637 75.315 76.8786 76.6538 78.1023 78.3581L80.9202 84.1989L81.1616 83.9262C82.8765 82.71 83.7353 80.7631 83.7353 77.8454C83 76.9947 82.8793 76.1412 82.2674 75.2904C81.5321 74.0743 79.9407 73.4635 78.9584 72.4928V72.4873Z" clip-rule="evenodd"/></g><defs><clipPath id="clip0_7_147"><rect width="180" height="180" fill="#fff" transform="translate(38 38)"/></clipPath></defs></svg>
        </g>
         
        <g transform="translate(1200, 0)">
          <svg xmlns="http://www.w3.org/2000/svg" width="256" height="256" fill="none" viewBox="0 0 256 256"><rect width="256" height="256" fill="#242938" rx="60"/><path fill="#81CD39" d="M119.878 31.1164C124.797 28.3008 131.203 28.2883 136.117 31.1164C160.839 45.0855 185.569 59.0332 210.287 73.0108C214.937 75.6296 218.046 80.8038 217.999 86.1608V170.206C218.034 175.785 214.617 181.083 209.712 183.642C185.071 197.535 160.442 211.444 135.805 225.337C130.786 228.207 124.251 227.986 119.387 224.88C112 220.598 104.6 216.336 97.2121 212.058C95.7022 211.158 94.0004 210.442 92.9345 208.978C93.8766 207.708 95.5618 207.55 96.9309 206.995C100.014 206.014 102.847 204.44 105.679 202.913C106.396 202.423 107.27 202.611 107.957 203.049C114.274 206.671 120.536 210.399 126.874 213.986C128.226 214.767 129.595 213.73 130.751 213.086C154.931 199.419 179.141 185.805 203.318 172.134C204.214 171.703 204.709 170.752 204.636 169.771C204.653 142.046 204.64 114.317 204.645 86.5918C204.747 85.4785 204.103 84.455 203.096 83.999C178.541 70.1702 153.997 56.3205 129.446 42.4882C128.575 41.8893 127.426 41.8878 126.554 42.4837C102.002 56.3205 77.4638 70.1832 52.9124 84.011C51.9092 84.4675 51.236 85.4745 51.3554 86.5918C51.3596 114.317 51.3554 142.046 51.3554 169.775C51.2682 170.756 51.801 171.687 52.6906 172.109C59.2422 175.824 65.8024 179.513 72.3582 183.216C76.0516 185.203 80.5863 186.385 84.6555 184.862C88.2463 183.574 90.7633 179.909 90.6948 176.097C90.7288 148.534 90.6778 120.967 90.7203 93.4078C90.6309 92.1841 91.7912 91.1731 92.981 91.2885C96.1292 91.267 99.281 91.2461 102.429 91.297C103.743 91.267 104.647 92.5847 104.485 93.8174C104.472 121.555 104.519 149.293 104.464 177.03C104.472 184.423 101.435 192.467 94.5973 196.084C86.1737 200.447 75.7619 199.522 67.4399 195.338C60.2355 191.742 53.3603 187.498 46.2838 183.646C41.3661 181.101 37.966 175.782 38.0006 170.207V86.1608C37.949 80.6929 41.1825 75.4248 45.9764 72.8445C70.6133 58.9408 95.2461 45.0261 119.878 31.1164Z"/><path fill="#81CD39" d="M141.372 89.3351C152.117 88.6433 163.62 88.9255 173.289 94.2185C180.776 98.2754 184.926 106.789 185.058 115.106C184.849 116.227 183.676 116.846 182.605 116.769C179.488 116.765 176.369 116.812 173.252 116.748C171.929 116.799 171.161 115.58 170.995 114.411C170.099 110.431 167.928 106.49 164.183 104.57C158.433 101.692 151.767 101.837 145.497 101.897C140.92 102.139 135.998 102.536 132.12 105.227C129.143 107.266 128.239 111.382 129.301 114.697C130.303 117.077 133.05 117.845 135.299 118.553C148.248 121.94 161.97 121.602 174.672 126.059C179.931 127.876 185.075 131.409 186.875 136.915C189.23 144.295 188.198 153.115 182.947 159.039C178.689 163.914 172.488 166.568 166.303 168.009C158.075 169.844 149.536 169.891 141.18 169.076C133.323 168.18 125.146 166.116 119.081 160.763C113.894 156.259 111.361 149.241 111.612 142.469C111.672 141.325 112.811 140.527 113.907 140.621C117.046 140.596 120.186 140.587 123.325 140.626C124.58 140.536 125.509 141.62 125.574 142.802C126.152 146.593 127.577 150.573 130.884 152.82C137.264 156.937 145.271 156.655 152.577 156.77C158.63 156.502 165.425 156.421 170.364 152.42C172.97 150.138 173.742 146.32 173.038 143.036C172.275 140.263 169.374 138.971 166.883 138.126C154.1 134.083 140.224 135.55 127.565 130.977C122.425 129.161 117.455 125.727 115.481 120.447C112.726 112.974 113.988 103.73 119.789 98.0061C125.445 92.312 133.609 90.1192 141.372 89.3346V89.3351"/></svg>
        </g>
         
        <g transform="translate(1500, 0)">
          <svg width="256" height="256" viewBox="0 0 256 256" fill="none" xmlns="http://www.w3.org/2000/svg">
<rect width="256" height="256" rx="60" fill="url(#paint0_linear_7_245)"/>
<path d="M79.2383 68.7408C69.2524 83.3576 70.4962 102.373 78.1042 117.886L78.6637 118.991L79.0417 119.691C79.1117 119.827 79.1929 119.961 79.2648 120.093C79.3971 120.339 79.5294 120.575 79.6428 120.817L80.3705 122.089L80.7864 122.789L81.6313 124.135L82.0093 124.702C82.3874 125.307 82.8145 125.908 83.2342 126.501C83.2436 126.516 83.2568 126.533 83.2682 126.548C83.3343 126.643 83.4081 126.737 83.4572 126.832C83.8201 127.342 84.2133 127.845 84.5913 128.344L85.0109 128.888L86.0411 130.178L86.4343 130.658C86.9028 131.223 87.3817 131.781 87.8708 132.329L87.901 132.359C87.9199 132.383 87.9388 132.397 87.9577 132.421C88.4316 132.956 88.9181 133.479 89.417 133.99L89.8857 134.47L91.052 135.635L91.5283 136.096C92.0524 136.598 92.5849 137.091 93.1255 137.576L93.4279 137.84L94.8777 139.088L95.4788 139.576L96.6885 140.521L97.335 141.022L99.1836 142.373C99.2308 142.405 99.2724 142.439 99.3197 142.471C99.7544 142.774 100.195 143.067 100.637 143.36L101.208 143.747L103.272 145.033L103.843 145.36L105.393 146.244C105.676 146.399 105.966 146.547 106.249 146.694L107.357 147.261L107.612 147.386L108.066 147.609L109.823 148.437L110.196 148.626C110.874 148.927 111.557 149.216 112.245 149.493L112.744 149.694L114.677 150.423L114.919 150.51C115.633 150.762 116.352 151.002 117.074 151.229L117.594 151.387C118.35 151.614 119.059 151.885 119.819 152.03C168.109 161.02 182.14 122.494 182.14 122.494C170.359 138.126 149.447 142.246 129.635 137.659C128.884 137.47 128.156 137.249 127.423 137.028L126.871 136.839C126.157 136.616 125.446 136.379 124.743 136.134L124.45 136.026C123.821 135.799 123.195 135.563 122.573 135.317L122.044 135.105C121.363 134.832 120.687 134.546 120.017 134.247L119.613 134.066L117.904 133.253L117.413 133.011C116.969 132.788 116.528 132.559 116.089 132.325L115.207 131.852C114.673 131.56 114.145 131.258 113.623 130.947L113.088 130.644C112.392 130.229 111.704 129.794 111.024 129.359C110.835 129.236 110.653 129.106 110.466 128.981L108.997 127.987L108.525 127.647L107.136 126.626L106.519 126.153L105.266 125.155L104.707 124.702L103.147 123.379C103.094 123.331 103.034 123.284 102.958 123.233C102.403 122.736 101.856 122.226 101.318 121.713L100.856 121.26L99.6769 120.084L99.2157 119.611C98.7244 119.101 98.2424 118.582 97.7697 118.054C97.747 118.027 97.7206 118.003 97.6979 117.978C97.1983 117.421 96.7093 116.853 96.2311 116.277L95.8474 115.812L94.7889 114.483L94.4014 113.992L93.1822 112.338C82.1813 97.0558 78.2497 75.9802 87.0202 58.6699L79.2383 68.7408ZM110.237 56.4244C103.017 67.0094 103.408 81.1745 109.041 92.3682C109.983 94.2477 111.05 96.062 112.235 97.7987C113.317 99.377 114.517 101.258 115.953 102.524C116.473 103.091 117.017 103.658 117.573 104.237C117.713 104.382 117.857 104.52 118 104.666C118.54 105.201 119.092 105.724 119.656 106.233C119.679 106.252 119.7 106.274 119.724 106.293C120.36 106.858 121.009 107.406 121.673 107.938L122.112 108.285C122.772 108.805 123.447 109.306 124.134 109.79C124.152 109.805 124.171 109.82 124.191 109.834C124.493 110.047 124.805 110.249 125.113 110.453C125.261 110.552 125.4 110.656 125.548 110.748C126.041 111.071 126.541 111.383 127.047 111.684L127.259 111.809L128.582 112.565C128.737 112.654 128.895 112.731 129.054 112.814L129.999 113.302C130.047 113.327 130.094 113.345 130.139 113.368C130.776 113.689 131.417 113.992 132.073 114.285C132.213 114.347 132.356 114.404 132.5 114.464C133.024 114.691 133.553 114.911 134.088 115.12L134.768 115.374C135.251 115.553 135.736 115.725 136.224 115.89L136.881 116.103C137.575 116.324 138.261 116.6 138.985 116.723C176.269 123.014 184.879 93.7764 184.879 93.7764C177.12 105.155 162.095 110.588 146.058 106.35C145.349 106.161 144.645 105.953 143.947 105.726C143.733 105.66 143.524 105.59 143.312 105.537C142.817 105.374 142.325 105.201 141.836 105.019L141.168 104.766C140.633 104.577 140.104 104.341 139.581 104.114C139.437 104.051 139.293 103.995 139.152 103.929C138.494 103.641 137.845 103.334 137.205 103.008C136.876 102.844 136.553 102.672 136.229 102.501L135.666 102.207C135.25 101.978 134.839 101.742 134.432 101.498L134.137 101.309C133.634 101.008 133.136 100.698 132.644 100.379C132.492 100.28 132.345 100.19 132.194 100.073L131.226 99.4205C130.542 98.9365 129.871 98.4361 129.211 97.9196L128.757 97.5567C121.739 91.9126 116.174 84.2007 113.53 75.4548C110.757 66.3819 111.356 56.2032 116.176 47.9412L110.237 56.4244ZM136.303 47.2229C132.046 53.6042 131.629 61.5279 134.602 68.5745C137.717 76.054 144.1 81.923 151.549 84.7035C151.856 84.8206 152.164 84.9246 152.494 85.0305L152.903 85.1628C153.341 85.3026 153.778 85.4652 154.23 85.5521C174.818 89.6028 180.401 74.7932 181.887 72.6138C176.995 79.7871 168.775 81.509 158.689 79.0159C157.895 78.8174 157.016 78.5244 156.231 78.2485C155.244 77.8913 154.277 77.4819 153.334 77.0217C151.539 76.1415 149.837 75.0834 148.253 73.8632C139.208 66.8884 133.6 53.5853 139.49 42.7507" fill="white"/>
<path d="M90.8364 182.681L89.4415 187.626L90.8364 182.683V182.681ZM98.0116 193.414L96.4749 193.404L98.0116 193.414ZM97.6336 200.797L88.4246 200.831L97.6336 200.797ZM99.5615 193.425L98.0229 193.416L99.5615 193.425ZM98.4615 200.169L100.068 194.051L98.4615 200.169ZM132.353 171.992L129.366 186.042L132.353 171.992ZM124.669 171.992L122.401 182.489L124.669 171.992Z" fill="white"/>
<path d="M131.823 171.359H125.434C125.079 171.359 124.727 171.643 124.652 171.99L120.115 192.985C120.04 193.331 119.688 193.614 119.335 193.614H114.812C110.336 193.614 110.854 190.52 111.787 186.28L111.816 186.152L112.358 183.26L112.592 182.069L114.657 171.99C114.728 171.643 114.496 171.357 114.141 171.357H107.582C107.401 171.363 107.227 171.428 107.086 171.542C106.946 171.656 106.846 171.813 106.803 171.988L103.848 186.002C102.223 193.419 102.654 200.493 111.485 200.714L111.74 200.719H125.599C125.954 200.719 126.304 200.436 126.38 200.088L132.356 171.988C132.432 171.641 132.199 171.357 131.846 171.357L131.823 171.359ZM157.316 193.688C157.672 193.688 157.883 193.971 157.832 194.319L157.212 197.353L157.316 193.688ZM156.592 200.389L157.212 197.353L156.592 200.389ZM155.814 201.027L144.038 201.084L155.814 201.027Z" fill="white"/>
<path d="M140.223 189.783C140.218 189.45 140.596 188.879 140.951 188.879L140.153 188.866C139.775 192.484 140.223 189.783 140.223 189.783ZM144.62 201.082H144.497H144.62ZM157.316 193.688C157.672 193.688 157.883 193.971 157.832 194.319L157.11 197.846L157.316 193.688ZM147.644 201.092H147.618H147.644ZM146.075 201.08H145.985H146.075ZM145.597 201.082H145.446H145.597ZM145.13 201.082H144.998H145.13ZM146.003 201.08H145.616H146.003Z" fill="white"/>
<path d="M147.62 201.092L146.077 201.097L147.62 201.092ZM155.817 201.044L147.642 201.094L155.817 201.044ZM156.573 200.389L157.093 197.848L156.573 200.39V200.389ZM145.429 201.082H145.13H145.467H145.429ZM144.493 201.082H144.04H144.493ZM144.979 201.082H144.601H144.979ZM51.4903 189.858L52.4827 185.458L51.3486 190.486L51.2163 191.117L51.4922 189.855L51.4903 189.858ZM63.3721 171.287H56.3538C56.1724 171.294 55.9981 171.359 55.8563 171.473C55.7145 171.586 55.6126 171.741 55.5656 171.917L54.2349 177.776C54.2125 177.852 54.2088 177.932 54.224 178.01C54.2392 178.087 54.2729 178.16 54.3223 178.222C54.3716 178.284 54.4352 178.333 54.5075 178.365C54.5798 178.397 54.6588 178.411 54.7377 178.406H61.8108C62.1661 178.406 62.5177 178.122 62.5933 177.776L63.8786 171.903C63.9542 171.558 63.7274 171.274 63.3683 171.274L63.3721 171.287ZM61.8448 181.056L59.7656 190.579L61.8448 181.056ZM41.4572 212.612L47.245 212.658C45.5362 212.658 42.7142 212.626 41.4553 212.611L41.4572 212.612Z" fill="white"/>
<path d="M53.4561 181.056L52.4619 185.456L53.4561 181.056ZM61.3382 180.426H54.2632C54.0819 180.433 53.9076 180.498 53.7657 180.612C53.6239 180.725 53.5221 180.88 53.475 181.056L51.4903 189.856L51.2143 191.119L49.3242 200.103C49.2305 200.522 49.117 200.937 48.9839 201.345C48.9839 201.345 47.6608 205.277 45.4417 205.233L43.2396 205.192C43.059 205.197 42.8847 205.259 42.742 205.37C42.5992 205.481 42.4955 205.634 42.4458 205.808L40.9809 211.975C40.9577 212.051 40.9531 212.131 40.9673 212.208C40.9815 212.286 41.0142 212.359 41.0626 212.421C41.1109 212.483 41.1736 212.533 41.2453 212.566C41.3169 212.599 41.3954 212.614 41.4742 212.611L47.2638 212.658C52.8134 212.658 55.7376 209.582 57.6145 200.736L61.8674 181.078C61.943 180.733 61.7124 180.449 61.3571 180.449L61.3382 180.426ZM161.824 200.723C161.469 200.723 161.257 200.44 161.314 200.092L166.635 175.168L161.824 200.723ZM169.219 200.09L171.374 189.452L169.219 200.09Z" fill="white"/>
<path d="M161.391 200.408C161.348 200.234 161.373 199.808 161.448 199.462L163.973 187.63L161.312 200.092C161.236 200.44 161.467 200.723 161.822 200.723H162.469C162.114 200.723 161.433 200.581 161.391 200.408ZM168.801 200.581C168.608 200.657 168.158 200.723 167.803 200.723H168.449C168.63 200.716 168.803 200.65 168.943 200.536C169.083 200.422 169.181 200.265 169.224 200.09L169.353 199.459C169.283 199.806 168.975 200.504 168.786 200.581H168.801ZM170.294 194.771L171.245 190.076L170.294 194.771ZM191.29 176.837L191.583 178.047C191.665 178.393 191.44 178.674 191.086 178.676" fill="white"/>
<path d="M169.347 199.459L170.292 194.771L169.347 199.459ZM191.001 175.574L191.29 176.814L191.001 175.574ZM171.245 190.076L171.506 188.821L172.521 184.067L171.372 189.45L171.245 190.074V190.076ZM166.722 174.758L166.501 175.797L163.975 187.63L166.637 175.168L166.722 174.76V174.758Z" fill="white"/>
<path d="M191.585 178.047L191.292 176.837L190.858 174.947C190.283 172.716 188.597 171.425 184.934 171.425L168.073 171.414C167.892 171.42 167.719 171.485 167.578 171.599C167.438 171.713 167.338 171.87 167.295 172.045L167.034 173.28L166.656 175.145L161.469 199.44C161.393 199.788 161.369 200.196 161.412 200.385C161.456 200.574 162.136 200.701 162.49 200.701H167.82C168.175 200.701 168.623 200.636 168.818 200.559C169.013 200.481 169.298 199.803 169.385 199.436L171.408 189.429L173.572 179.29C173.647 178.944 173.997 178.663 174.351 178.661L191.122 178.653C191.476 178.653 191.701 178.37 191.619 178.024L191.585 178.047ZM213.177 167.097L211.886 167.102H206.518C206.321 167.114 206.13 167.168 205.955 167.26C205.781 167.352 205.629 167.48 205.508 167.635L193.638 185.025C193.438 185.318 193.209 185.275 193.128 184.931L192.254 181.099C192.207 180.924 192.106 180.768 191.964 180.655C191.822 180.542 191.648 180.477 191.466 180.47H183.836C183.48 180.47 183.269 180.748 183.367 181.09L186.769 193.07C186.867 193.41 186.873 193.971 186.788 194.317L185.276 200.115C185.25 200.189 185.243 200.268 185.256 200.346C185.269 200.424 185.301 200.497 185.349 200.559C185.397 200.621 185.46 200.67 185.532 200.702C185.604 200.734 185.683 200.747 185.762 200.74H193.322C193.678 200.74 194.041 200.457 194.128 200.116L195.64 194.319C195.758 193.911 195.944 193.525 196.188 193.178L215.479 167.598C215.693 167.314 215.578 167.084 215.222 167.087L213.2 167.101L213.177 167.097ZM152.547 182.099C152.502 182.477 152.147 182.761 151.791 182.761H142.113C141.779 182.761 141.609 182.534 141.66 182.25L141.667 182.199L141.711 182.035C142.656 179.578 144.518 177.965 148.054 177.965C152.037 177.965 152.814 179.912 152.544 182.099H152.547ZM149.708 170.932C137.29 170.932 134.347 178.47 132.697 186.078C131.045 193.833 131.188 201.086 144.038 201.086H146.075L147.644 201.08L155.821 201.031C156.001 201.023 156.172 200.957 156.311 200.843C156.45 200.729 156.548 200.573 156.59 200.398L157.832 194.327C157.904 193.979 157.672 193.695 157.316 193.695H145.763C141.17 193.695 139.804 192.474 140.306 188.885H158.774C159.076 188.879 159.35 188.696 159.458 188.409C159.477 188.358 159.496 188.303 159.503 188.248C162.244 177.909 161.458 170.94 149.712 170.94L149.708 170.932ZM91.0103 182.058L90.8364 182.676C90.8364 182.678 89.4415 187.62 89.4415 187.62L88.0465 192.561C87.9886 192.736 87.8791 192.888 87.7327 192.999C87.5862 193.109 87.4096 193.173 87.2262 193.181H79.8431C74.2444 193.181 72.8815 188.802 74.2444 182.343C75.6053 175.737 78.2799 171.629 83.7898 171.214C91.3203 170.647 92.8249 175.943 91.0103 182.056V182.058ZM96.0723 192.803C96.0723 192.803 99.5502 184.354 100.344 179.472C101.421 172.937 98.1515 163.462 85.5156 163.462C72.9515 163.462 67.4964 172.508 65.4153 182.364C63.3361 192.268 66.0617 200.956 78.5521 200.888L97.6165 200.818C97.7993 200.809 97.9749 200.744 98.1194 200.632C98.2639 200.519 98.3701 200.365 98.4236 200.19L100.03 194.07C100.056 193.996 100.063 193.916 100.051 193.839C100.039 193.761 100.007 193.688 99.9591 193.626C99.9113 193.563 99.8487 193.514 99.7769 193.482C99.7052 193.45 99.6266 193.436 99.5483 193.442L96.473 193.423C96.1705 193.421 96.0004 193.227 96.0345 192.97C96.042 192.922 96.0534 192.875 96.0723 192.826V192.803Z" fill="white"/>
<path d="M158.267 187.15C158.267 187.384 158.078 187.573 157.844 187.573C157.609 187.573 157.42 187.384 157.42 187.15C157.42 186.915 157.609 186.726 157.844 186.726C158.078 186.726 158.267 186.915 158.267 187.15Z" fill="white"/>
<defs>
<linearGradient id="paint0_linear_7_245" x1="0" y1="0" x2="256" y2="256" gradientUnits="userSpaceOnUse">
<stop stop-color="#FF5C00"/>
<stop offset="1" stop-color="#FF0F00"/>
</linearGradient>
</defs>
</svg>

        </g>
         
        <g transform="translate(1800, 0)">
          <svg xmlns="http://www.w3.org/2000/svg" width="256" height="256" fill="none" viewBox="0 0 256 256"><rect width="256" height="256" fill="#242938" rx="60"/><path fill="#fff" d="M228 182.937C225.089 184.04 221.875 184.037 218.965 182.931C216.056 181.824 213.652 179.69 212.209 176.932C203.146 163.365 193.138 150.41 183.519 137.177L179.348 131.617C167.894 146.963 156.44 161.697 145.987 176.988C144.625 179.624 142.352 181.675 139.59 182.759C136.828 183.844 133.766 183.887 130.975 182.882L173.955 125.223L133.977 73.1236C136.855 72.0845 140.003 72.0702 142.89 73.0832C145.777 74.0962 148.226 76.0744 149.824 78.6838C159.109 92.2506 169.396 105.206 179.626 118.94C189.913 105.317 200.088 92.3062 209.596 78.8506C210.965 76.2574 213.24 74.258 215.988 73.2328C218.735 72.2076 221.764 72.2281 224.497 73.2904L208.984 93.8631C202.034 103.037 195.195 112.267 187.967 121.219C187.384 121.741 186.918 122.379 186.599 123.093C186.28 123.807 186.115 124.58 186.115 125.362C186.115 126.143 186.28 126.916 186.599 127.63C186.918 128.344 187.384 128.982 187.967 129.504C201.256 147.13 214.433 164.811 228 182.937V182.937Z"/><path fill="#fff" d="M28 124.5C29.1676 118.94 29.8905 112.879 31.5029 107.208C41.122 73.0129 80.3214 58.7788 107.288 79.9632C123.079 92.3624 127.027 109.933 126.249 129.727H37.2855C35.8399 165.09 61.3611 186.441 93.9994 175.543C99.2938 173.649 104.033 170.467 107.79 166.283C111.547 162.099 114.202 157.045 115.517 151.578C117.241 146.018 120.021 145.073 125.303 146.685C124.433 153.454 122.04 159.938 118.303 165.649C114.567 171.36 109.584 176.149 103.73 179.657C94.0573 184.947 82.96 187.042 72.0247 185.644C61.0894 184.246 50.8763 179.426 42.8457 171.873C34.9011 162.94 30.0973 151.654 29.1676 139.735C29.1676 137.845 28.4448 135.954 28.0556 134.175C28.0185 130.876 28 127.651 28 124.5ZM37.3967 122.109H117.853C117.352 96.4769 101.172 78.2951 79.5986 78.1283C55.5785 77.7947 38.3976 95.5873 37.3411 121.998L37.3967 122.109Z"/></svg>
        </g>
         
        <g transform="translate(2100, 0)">
          <svg width="256" height="256" viewBox="0 0 256 256" fill="none" xmlns="http://www.w3.org/2000/svg">
<g clip-path="url(#clip0_33_799)">
<path d="M196 0H60C26.8629 0 0 26.8629 0 60V196C0 229.137 26.8629 256 60 256H196C229.137 256 256 229.137 256 196V60C256 26.8629 229.137 0 196 0Z" fill="#242938"/>
<g clip-path="url(#clip1_33_799)">
<path d="M87.1344 157.687C85.8041 158.254 83.9423 159.02 82.4418 159.493C79.2637 160.494 76.7141 160.899 74.1013 161.296C77.2429 171.369 89.5504 181.26 103.903 180.326C117.432 180.326 126.799 173.657 131.783 163.983C117.65 163.783 97.0626 169.667 87.1344 157.687ZM216.277 159.348C211.336 159.937 207.806 158.943 199.709 161.542C180.107 169.615 160.708 162.768 154.532 161.429C152.504 161.218 151.574 158.251 147.413 163.16L145.384 165.552C154.964 174.979 168.095 180.388 181.693 180.388C200.003 180.388 212.382 171.546 216.495 159.535L216.277 159.348Z" fill="#B75CFF"/>
<path d="M217.316 143.618C206.55 136.141 204.397 141.546 198.999 147.382C199.498 148.659 199.768 150.11 199.768 151.798C199.768 159.678 193.434 164.779 182.156 164.779C172.73 164.779 162.997 160.144 155.737 153.345L147.412 163.16C158.684 163.667 170.095 166.578 181.508 166.128C193.998 165.633 210.498 161.678 216.277 159.349L216.497 159.535C217.497 156.597 218.005 153.513 218 150.408C218 147.952 217.761 145.698 217.316 143.618ZM135.999 143.781C129.898 139.128 124.051 140.712 118.444 147.287V148.412C118.444 157.32 111.246 164.541 102.367 164.541C99.642 164.542 96.9619 163.849 94.5787 162.528C92.1956 161.207 90.1878 159.301 88.7444 156.99C88.7444 156.99 88.0427 157.299 87.1343 157.686C91.3362 162.982 96.4999 165.72 106.747 166.128C115.093 166.458 123.439 164.996 131.786 163.983C134.574 158.575 135.999 152.23 135.999 145.577V143.781Z" fill="#5C6CFF"/>
<path d="M135.999 124.678C130.301 119.665 124.5 118.654 118.445 126.304V147.287C124.316 145.92 130.173 144.531 135.999 143.781V124.678ZM203.936 126.203C195.172 122.367 168.932 126.204 164.293 127.962C166.209 129.092 168.203 130.085 170.259 130.935L184.011 136.962C191.406 140.045 197.026 142.344 198.999 147.382C204.676 146.558 209.571 145.428 212.829 144.678L217.315 143.618C215.595 135.587 210.721 130.195 203.936 126.203Z" fill="#5CFF9D"/>
<path d="M149.888 105.331C150.35 116.474 156.801 123.52 164.326 127.976C170.069 129.109 175.812 130.092 181.556 130.092C189.573 130.092 197.581 128.183 203.943 126.206C201.902 125.018 199.786 123.965 197.607 123.056L184.011 117.338C177.295 114.601 170.982 112.163 168.774 107.206C155.226 100.326 164.314 95.9853 149.891 105.333L149.888 105.331ZM135.999 106.681C130.846 103.126 125.033 104.191 118.443 109.9L118.445 126.315C124.295 125.729 130.147 124.95 135.999 124.678V106.681Z" fill="#FFDB5C"/>
<path d="M155.939 87.327C152.072 91.9747 149.864 97.722 149.864 104.047C149.864 104.48 149.874 104.908 149.891 105.33C156.155 105.268 162.456 105.963 168.774 107.207C168.21 105.92 167.927 104.526 167.943 103.121C167.943 95.7027 174.122 91.2209 183.703 91.2209C192.353 91.2209 199.307 94.4666 205.64 99.8736L212.367 91.5809C192.711 85.5059 175.143 81.6852 155.942 87.3256L155.939 87.327ZM135.999 91.2983C128.748 84.9308 123.182 89.6276 118.443 98.5123V109.9C124.296 108.993 130.146 107.668 135.999 106.68V91.2983Z" fill="#F79454"/>
<path d="M118.443 75.6144V98.5138C124.296 96.538 130.146 93.6159 135.999 91.2969V75.6144H118.443ZM183.7 75.6144C171.805 75.6144 161.902 80.1637 155.941 87.3229C164.425 87.3552 172.965 89.0694 181.506 90.089C193.725 91.5487 205.902 91.5796 212.364 91.5796L214.912 88.4394C207.031 80.5574 195.597 75.6144 183.7 75.6144Z" fill="#FF5C5C"/>
<path d="M38 75.6143V152.961H67.2823C74.9577 152.961 80.8358 151.744 86.2948 148.991C86.285 148.801 86.285 148.607 86.285 148.414C86.285 139.506 93.485 132.288 102.367 132.288C102.63 132.288 102.89 132.293 103.15 132.307C105.936 126.636 107.06 121.012 107.06 113.624C107.06 106.001 105.625 99.3658 102.751 93.6227C99.7681 87.9879 95.458 83.568 89.7148 80.3618C83.9661 77.1597 77.0066 75.6143 68.7181 75.6143H38ZM56.5625 92.1869H67.7239C74.2447 92.1869 79.2158 94.0671 82.5317 97.9343C85.8462 101.8 87.5028 107.103 87.5028 113.954C87.5028 120.915 85.7323 126.332 82.3081 130.309C78.8839 134.397 73.8003 136.385 67.0588 136.385H56.5639L56.5625 92.1869ZM102.413 138.256C101.062 138.228 99.7182 138.471 98.4615 138.969C97.2048 139.467 96.0601 140.211 95.0945 141.157C94.1289 142.103 93.3618 143.232 92.8381 144.479C92.3144 145.725 92.0447 147.063 92.0447 148.415C92.0447 149.767 92.3144 151.105 92.8381 152.352C93.3618 153.598 94.1289 154.727 95.0945 155.673C96.0601 156.619 97.2048 157.363 98.4615 157.862C99.7182 158.36 101.062 158.602 102.413 158.575C105.079 158.53 107.62 157.44 109.489 155.54C111.358 153.639 112.406 151.08 112.406 148.414C112.406 145.749 111.358 143.19 109.489 141.289C107.62 139.389 105.079 138.3 102.413 138.256Z" fill="#5865F2"/>
</g>
</g>
<defs>
<clipPath id="clip0_33_799">
<rect width="256" height="256" fill="white"/>
</clipPath>
<clipPath id="clip1_33_799">
<rect width="180" height="180" fill="white" transform="translate(38 38)"/>
</clipPath>
</defs>
</svg>

        </g>
         
        <g transform="translate(2400, 0)">
          <svg xmlns="http://www.w3.org/2000/svg" width="256" height="256" fill="none" viewBox="0 0 256 256"><rect width="256" height="256" fill="#5865F2" rx="60"/><path fill="#98A0F7" fill-rule="evenodd" d="M149.541 226.539C178.626 226.516 207.754 226.692 236.881 226.539L245.105 181.333H10L19.303 226.539C62.7124 226.255 106.151 226.572 149.541 226.539Z" clip-rule="evenodd"/><path fill="#98A0F7" fill-rule="evenodd" d="M215.716 183.071H39.3879V123.93C39.3879 72.0546 78.861 30 127.552 30C176.243 30 215.716 72.0546 215.716 123.93V183.071Z" clip-rule="evenodd"/><path fill="#fff" fill-rule="evenodd" d="M220.883 151.223V65.4102V151.223ZM34.7578 151.223V65.4102Z" clip-rule="evenodd"/><path stroke="#202225" stroke-linecap="round" stroke-linejoin="round" stroke-width="3.37" d="M34.7578 151.223V65.4102M220.883 151.223V65.4102V151.223Z"/><path fill="#fff" fill-rule="evenodd" d="M225.781 118.172H29.8594C26.2539 118.172 23.3281 128.297 23.3281 140.785C23.3281 153.277 26.2539 163.398 29.8594 163.398H225.781C229.387 163.398 232.312 153.277 232.312 140.785C232.312 128.297 229.387 118.172 225.781 118.172Z" clip-rule="evenodd"/><path fill="#fff" fill-rule="evenodd" d="M145.727 111.754C136.949 124.848 118.691 124.848 109.914 111.754C105.781 105.594 99.1133 101.938 92.0039 101.938H72.2539C64.168 101.938 57.6172 108.922 57.6172 117.535V173.254H198.027V117.535C198.027 108.922 191.473 101.938 183.387 101.938H163.637C156.527 101.938 149.859 105.594 145.727 111.754Z" clip-rule="evenodd"/><path fill="#fff" fill-rule="evenodd" d="M137.617 97.4453C137.617 91.6836 133.23 87.0078 127.82 87.0078C122.41 87.0078 118.023 91.6836 118.023 97.4453C118.023 103.207 122.41 107.883 127.82 107.883C133.23 107.883 137.617 103.207 137.617 97.4453Z" clip-rule="evenodd"/><path fill="#000" fill-rule="evenodd" d="M96.8008 140.207C96.8008 133.48 91.6836 128.027 85.3711 128.027C79.0586 128.027 73.9414 133.48 73.9414 140.207C73.9414 146.93 79.0586 152.383 85.3711 152.383C91.6836 152.383 96.8008 146.93 96.8008 140.207ZM181.699 140.207C181.699 133.48 176.582 128.027 170.27 128.027C163.957 128.027 158.84 133.48 158.84 140.207C158.84 146.93 163.957 152.383 170.27 152.383C176.582 152.383 181.699 146.93 181.699 140.207Z" clip-rule="evenodd"/><path fill="#fff" fill-rule="evenodd" d="M202.922 209.551C202.922 206.672 200.73 204.332 198.027 204.332C195.32 204.332 193.129 206.672 193.129 209.551C193.129 212.434 195.32 214.77 198.027 214.77C200.73 214.77 202.922 212.434 202.922 209.551ZM186.598 209.551C186.598 206.672 184.406 204.332 181.699 204.332C178.992 204.332 176.801 206.672 176.801 209.551C176.801 212.434 178.992 214.77 181.699 214.77C184.406 214.77 186.598 212.434 186.598 209.551ZM170.27 209.551C170.27 206.672 168.078 204.332 165.371 204.332C162.668 204.332 160.473 206.672 160.473 209.551C160.473 212.434 162.668 214.77 165.371 214.77C168.078 214.77 170.27 212.434 170.27 209.551Z" clip-rule="evenodd"/></svg>
        </g>
         
        <g transform="translate(2700, 0)">
          <svg width="256" height="256" viewBox="0 0 256 256" fill="none" xmlns="http://www.w3.org/2000/svg">
<rect width="256" height="256" rx="60" fill="#242938"/>
<path d="M104.028 122.58C95.08 117.414 88.087 109.44 84.1332 99.895C80.1794 90.3496 79.4857 79.7664 82.1598 69.7866C84.8339 59.8069 90.7262 50.9884 98.923 44.6988C107.12 38.4092 117.163 35 127.495 35C137.826 35 147.87 38.4092 156.066 44.6988C164.263 50.9884 170.155 59.8069 172.829 69.7866C175.504 79.7664 174.81 90.3496 170.856 99.895C166.902 109.44 159.909 117.414 150.962 122.58L136.831 98.1043C140.39 96.0492 143.172 92.8769 144.745 89.0795C146.318 85.282 146.594 81.0717 145.53 77.1015C144.466 73.1312 142.122 69.623 138.861 67.1208C135.6 64.6186 131.605 63.2623 127.495 63.2623C123.384 63.2623 119.389 64.6186 116.128 67.1208C112.867 69.623 110.523 73.1312 109.459 77.1015C108.395 81.0717 108.671 85.282 110.244 89.0795C111.817 92.8769 114.599 96.0492 118.159 98.1043L104.028 122.58Z" fill="#FF0101"/>
<path d="M204.533 133.943C213.481 139.109 220.474 147.083 224.427 156.628C228.381 166.173 229.075 176.756 226.401 186.736C223.727 196.716 217.834 205.534 209.638 211.824C201.441 218.114 191.398 221.523 181.066 221.523C170.734 221.523 160.691 218.114 152.494 211.824C144.297 205.534 138.405 196.716 135.731 186.736C133.057 176.756 133.751 166.173 137.704 156.628C141.658 147.083 148.651 139.109 157.599 133.943L171.73 158.419C168.17 160.474 165.388 163.646 163.815 167.443C162.242 171.241 161.967 175.451 163.03 179.421C164.094 183.392 166.438 186.9 169.699 189.402C172.96 191.904 176.956 193.261 181.066 193.261C185.176 193.261 189.172 191.904 192.433 189.402C195.693 186.9 198.038 183.392 199.101 179.421C200.165 175.451 199.889 171.241 198.316 167.443C196.743 163.646 193.961 160.474 190.402 158.419L204.533 133.943Z" fill="#0101FF"/>
<path d="M121.868 174.589C121.868 184.921 118.459 194.964 112.169 203.16C105.88 211.357 97.0613 217.25 87.0816 219.924C77.1018 222.598 66.5186 221.904 56.9733 217.95C47.4279 213.996 39.4539 207.003 34.288 198.056C29.1221 189.108 27.053 178.706 28.4016 168.463C29.7502 158.219 34.4411 148.707 41.7467 141.401C49.0524 134.096 58.5646 129.405 68.808 128.056C79.0514 126.708 89.4536 128.777 98.4012 133.943L84.27 158.419C80.7104 156.363 76.5721 155.54 72.497 156.077C68.4219 156.613 64.6376 158.479 61.7312 161.386C58.8248 164.292 56.9586 168.077 56.4221 172.152C55.8856 176.227 56.7088 180.365 58.7639 183.925C60.8191 187.484 63.9914 190.266 67.7888 191.839C71.5862 193.412 75.7965 193.688 79.7668 192.624C83.737 191.561 87.2453 189.216 89.7475 185.955C92.2496 182.695 93.6059 178.699 93.6059 174.589H121.868Z" fill="#01FF01"/>
</svg>

        </g>
        
  </svg>
  